<?xml version="1.0" encoding="utf-8"?>
<!-- Generator: Adobe Illustrator 19.0.0, SVG Export Plug-In . SVG Version: 6.00 Build 0)  -->
<svg version="1.1" id="Capa_1" xmlns="http://www.w3.org/2000/svg" xmlns:xlink="http://www.w3.org/1999/xlink" x="0px" y="0px" width="26" height="26"
	 viewBox="-292 384 26 26" style="enable-background:new -292 384 26 26;" xml:space="preserve">
<style type="text/css">
	.st0{fill:#FFFFFF;}
</style>
<g>
	<g>
		<g>
			<g>
				<g>
					<path class="st0" d="M-285,392.7c0-1.9,0.5-3.6,1.4-5.2c0.2-0.3-0.1-0.9-0.5-0.7c-4.8,1.3-8.2,5.7-7.8,11
						c0.4,4.9,4.4,9,9.4,9.4c3.4,0.3,6.5-1,8.6-3.3c0.3-0.3,0.1-0.8-0.4-0.8c-0.1,0-0.2,0-0.3,0C-280.4,403.1-285,398.4-285,392.7z"
						/>
				</g>
			</g>
			<g>
				<path class="st0" d="M-278.8,387.2l0.5,1.5l1.6,0.1c0.2,0,0.3,0.3,0.1,0.4l-1.3,1l0.5,1.5c0.1,0.2-0.2,0.3-0.3,0.2l-1.3-0.9
					l-1.3,0.9c-0.2,0.1-0.4-0.1-0.3-0.2l0.5-1.5l-1.3-1c-0.2-0.1-0.1-0.4,0.1-0.4l1.6-0.1l0.5-1.5C-279.1,387-278.9,387-278.8,387.2
					z"/>
			</g>
			<g>
				<path class="st0" d="M-269,399.1l0.5,1.4l1.5,0.1c0.2,0,0.3,0.3,0.1,0.4l-1.2,0.9l0.5,1.5c0.1,0.2-0.2,0.4-0.3,0.3l-1.3-0.9
					l-1.3,0.9c-0.2,0.1-0.4-0.1-0.3-0.3l0.5-1.5l-1.2-0.9c-0.2-0.1-0.1-0.4,0.1-0.4l1.5-0.1l0.5-1.4
					C-269.4,398.8-269.2,398.8-269,399.1z"/>
			</g>
			<g>
				<path class="st0" d="M-269.3,388.6l0.7,2.2l2.3,0.1c0.3,0,0.3,0.3,0.2,0.5l-1.8,1.4l0.7,2.2c0.1,0.2-0.2,0.5-0.4,0.3l-1.9-1.3
					l-1.9,1.3c-0.2,0.2-0.5-0.1-0.4-0.3l0.7-2.2l-1.8-1.4c-0.2-0.2-0.1-0.5,0.2-0.5l2.3-0.1l0.7-2.2
					C-269.7,388.4-269.3,388.4-269.3,388.6z"/>
			</g>
		</g>
	</g>
</g>
</svg>
