<?xml version="1.0" encoding="UTF-8" standalone="no"?>
<!-- Generator: Adobe Illustrator 22.0.1, SVG Export Plug-In . SVG Version: 6.00 Build 0)  -->

<svg
   xmlns:dc="http://purl.org/dc/elements/1.1/"
   xmlns:cc="http://creativecommons.org/ns#"
   xmlns:rdf="http://www.w3.org/1999/02/22-rdf-syntax-ns#"
   xmlns:svg="http://www.w3.org/2000/svg"
   xmlns="http://www.w3.org/2000/svg"
   xmlns:sodipodi="http://sodipodi.sourceforge.net/DTD/sodipodi-0.dtd"
   xmlns:inkscape="http://www.inkscape.org/namespaces/inkscape"
   version="1.1"
   id="Layer_1"
   x="0px"
   y="0px"
   viewBox="0 0 500 500"
   style="enable-background:new 0 0 500 500;"
   xml:space="preserve"
   sodipodi:docname="doctor-white.svg"
   inkscape:version="0.92.2 (5c3e80d, 2017-08-06)"><metadata
     id="metadata3735"><rdf:RDF><cc:Work
         rdf:about=""><dc:format>image/svg+xml</dc:format><dc:type
           rdf:resource="http://purl.org/dc/dcmitype/StillImage" /><dc:title></dc:title></cc:Work></rdf:RDF></metadata><defs
     id="defs3733" /><sodipodi:namedview
     pagecolor="#ffffff"
     bordercolor="#666666"
     borderopacity="1"
     objecttolerance="10"
     gridtolerance="10"
     guidetolerance="10"
     inkscape:pageopacity="0"
     inkscape:pageshadow="2"
     inkscape:window-width="1297"
     inkscape:window-height="1008"
     id="namedview3731"
     showgrid="false"
     inkscape:zoom="1.124"
     inkscape:cx="105.42705"
     inkscape:cy="250"
     inkscape:window-x="614"
     inkscape:window-y="0"
     inkscape:window-maximized="0"
     inkscape:current-layer="Layer_1" /><g
     id="g3722"
     style="fill:#ffffff;fill-opacity:0.00392157"><g
       id="g3720"
       style="fill:#ffffff;fill-opacity:0.00392157"><path
         d="M250,0c-53.9,0-97.7,43.8-97.7,97.7v50.6c0,53.9,43.8,97.7,97.7,97.7c53.9,0,97.7-43.8,97.7-97.7V97.7    C347.7,43.8,303.9,0,250,0z"
         id="path3718"
         style="fill:#ffffff;fill-opacity:0.00392157" /></g></g><g
     id="g3728"
     style="fill:#ffffff;fill-opacity:0.00392157"><g
       id="g3726"
       style="fill:#ffffff;fill-opacity:0.00392157"><path
         d="M465.5,373.4c-31.3-53.3-81.3-92.8-140.8-111.3c-1.4-0.4-2.9-0.1-3.9,1c-27.7,27.3-62.1,48.6-70.7,53.7    c-9.2-5.9-47.8-31.1-70.8-53.7c-1-1-2.5-1.4-3.9-1c-59.5,18.5-109.5,58-140.8,111.3c-0.7,1.2-0.7,2.7,0,4    C79,453,161.5,500,250,500c88.5,0,171.1-47,215.5-122.7C466.2,376.1,466.2,374.6,465.5,373.4z M382.9,402.5c0,2.2-2.1,3.8-4.2,3.8    h-26.5c-2.2,0-4.5,1.9-4.5,4v27.4c0,2.2-1.2,3.8-3.3,3.8h-23.8c-2.2,0-4.2-1.6-4.2-3.8v-27.4c0-2.2-1.5-4-3.6-4h-27.6    c-2.2,0-3.9-1.7-3.9-3.8v-23.6c0-2.2,1.8-3.9,3.9-3.9h27.6c2.2,0,3.6-1.8,3.6-3.9v-27.4c0-2.2,2-3.9,4.2-3.9h23.5    c2.2,0,3.6,1.7,3.6,3.9v27.5c0,2.2,2.1,3.8,4.2,3.8h26.7c2.2,0,4.2,1.8,4.2,4L382.9,402.5L382.9,402.5z"
         id="path3724"
         style="fill:#ffffff;fill-opacity:0.00392157" /></g></g></svg>