<?xml version="1.0" encoding="utf-8"?>
<!-- Generator: Adobe Illustrator 22.0.1, SVG Export Plug-In . SVG Version: 6.00 Build 0)  -->
<svg version="1.1" id="Capa_1" xmlns="http://www.w3.org/2000/svg" xmlns:xlink="http://www.w3.org/1999/xlink" x="0px" y="0px" width="64" height="64"
	 viewBox="0 0 64 64" style="enable-background:new 0 0 64 64;" xml:space="preserve">
<style type="text/css">
	.st0{fill:#FFFFFF;}
</style>
<g>
	<g>
		<path class="st0" d="M42,16.3c-4.2,0.9-8.2-1.8-9.1-5.9c-0.9-4.2,1.8-8.2,5.9-9.1C42.9,0.3,47,3,47.9,7.1
			C48.8,11.3,46.1,15.4,42,16.3z"/>
		<path class="st0" d="M0.8,49.7l3.5-1.4l5.7-10l7.3-5.4l3.3,1.9l3.4-1.2c0.4-1.1,1.5-1.8,2.8-1.8c6.9,0,11-4.9,11.3-9.7
			c0.2-2.4,2.1-4.4,4.1-5.3c0,0,0.7-0.4,1.6-0.6c0.8-0.2,1.7-0.2,1.7-0.2l0,0c2.7,0.1,5.8,1.6,6.5,4.7l3.6,16.6
			c0.2,1,0.1,1.9-0.2,2.8c0,0.2-3.7,9.3-3.7,9.3h8.4c2.2,0,4.1,1.8,4.1,4.1c0,2.2-1.8,4.1-4.1,4.1H45.5c-1.4,0-2.6-0.7-3.4-1.8
			c-0.8-1.1-0.9-2.6-0.4-3.8l2.3-5.6l-5,1.4l1.9,10.3c0.4,2.2-1.1,4.3-3.3,4.7c-0.2,0-0.5,0.1-0.7,0.1c-1.9,0-3.6-1.4-4-3.3
			l-2.5-13.9c-0.4-2.1,0.9-4.1,2.9-4.6l8-2.3L40,32.5c-2.9,3.4-7.4,5.2-13.3,5.2c-0.7,0-1.4-0.3-1.9-0.7L22,38l-7.8,14.9l0.3,8
			c0,1-0.7,1.8-1.7,1.8c0,0,0,0-0.1,0c-0.9,0-1.7-0.7-1.8-1.7l-0.2-5.1L10,61.4c-0.1,0.9-0.9,1.5-1.7,1.5c-0.1,0-0.2,0-0.3,0
			c-1-0.1-1.6-1-1.5-2l1.4-9l-2.4-1.3l-3.7,1.5c-0.2,0.1-0.3,0.1-0.5,0.1c-0.5,0-1-0.3-1.2-0.8C-0.2,50.7,0.2,49.9,0.8,49.7z"/>
		<path class="st0" d="M16.6,29.2c-0.2,0.2-0.5,0.4-0.7,0.7c-0.2,0.2,0.8,2.4,0.8,2.4l-7.1,5.1c-0.5-0.8-1-1.5-1.4-2.3
			C7,33.4,6,31.7,4.8,30.2c-0.3-0.4-0.7-0.8-1.2-1.1c-1.9-1.5-0.7-2.6-0.4-2.8C4,25.9,4.9,26,5.7,26.4c0.4,0.2,0.9,0.5,1.3,0.7
			c0.1,0.1,0.2,0.1,0.4,0c0.2-0.2,0.4-0.3,0.7-0.4c1.3-0.8,2.5-0.6,3.9-1.2c0.5-0.2,3.4-3.5,4.9-2.7c1.7,0.9,1.8,2.7,1.3,4.2
			C17.7,27.8,17.2,28.5,16.6,29.2z"/>
	</g>
</g>
</svg>
