<?xml version="1.0" encoding="utf-8"?>
<!-- Generator: Adobe Illustrator 22.0.1, SVG Export Plug-In . SVG Version: 6.00 Build 0)  -->
<svg version="1.1" id="Capa_1" xmlns="http://www.w3.org/2000/svg" xmlns:xlink="http://www.w3.org/1999/xlink" x="0px" y="0px"
	 viewBox="0 0 41.6 41.6" style="enable-background:new 0 0 41.6 41.6;" xml:space="preserve">
<style type="text/css">
	.st0{fill:#54F542;}
</style>
<g>
	<g>
		<path class="st0" d="M29.8,14L18.2,25.6c-0.8,0.8-0.8,2.2,0,3.1c0.1,0.1,0.2,0.2,0.3,0.2c-0.2,0.1-0.5,0.1-0.7,0.1L13,29.9
			c0.1-0.2,0.2-0.4,0.2-0.6c0-2.5-2.8-1.2-2.8-2.8c0-1.6-1.9-1.9-1.9-1.9l-0.4,0l0.7-4.1l0-0.1c0-0.3,0.1-0.6,0.2-0.9
			c0.1,0.1,0.2,0.2,0.3,0.4c0.9,0.9,2.2,0.9,3.1,0L23.9,8.2c0.9-0.8,0.9-2.2,0-3.1c-0.8-0.8-2.2-0.8-3.1,0L9.3,16.7c0,0,0,0,0,0
			c-0.1,0-0.1,0.1-0.2,0.1c-0.8,0.8-1.6,2.1-1.7,3.3L5.5,30.5l0,0.1c0,0.5,0.2,1,0.5,1.3c0.3,0.3,0.8,0.5,1.3,0.5l10.6-1.9
			c1.1,0,2.2-0.6,3.2-1.6c0,0,0-0.1,0.1-0.1c0,0,0.1-0.1,0.1-0.1l11.6-11.6c0.9-0.9,0.8-2.2,0-3.1C32,13.2,30.6,13.2,29.8,14z"/>
		<path class="st0" d="M13.7,24.2c0.8,0.8,2.2,0.8,3.1,0l11.6-11.6c0.8-0.9,0.8-2.2,0-3.1c-0.9-0.8-2.2-0.9-3.1,0L13.7,21.2
			C12.9,22,12.9,23.4,13.7,24.2z"/>
		<path class="st0" d="M36.5,6.7l-5.4-5.4c-1.8-1.8-4.8-1.8-6.7,0L23.9,2c-0.3,0.3-0.3,0.7,0,1l11,11c0.3,0.3,0.7,0.3,1,0l0.6-0.6
			C38.4,11.6,38.4,8.6,36.5,6.7z"/>
		<path class="st0" d="M18.6,40.6c-0.6,0.1-1.1,0.1-1.7,0s-1.1-0.2-1.6-0.3c-0.2-0.1-0.5-0.2-0.7-0.3c-0.2-0.1-0.5-0.3-0.7-0.4
			c-0.4-0.3-0.8-0.7-1.2-1.1c-0.2-0.2-0.4-0.4-0.5-0.6l-0.5-0.7c-0.2-0.3-0.6-0.4-0.9-0.3l-0.1,0c-0.7,0.2-1.4,0.3-2.1,0.4
			c-0.3,0-0.7,0.1-1,0c-0.3,0-0.6,0-0.8-0.1c-0.1,0-0.2-0.1-0.3-0.1c0-0.1-0.1-0.1-0.1-0.1c0,0,0,0,0,0c0,0,0,0,0,0c0,0,0-0.1,0-0.1
			c0-0.1,0-0.2,0-0.3c0-0.1,0.1-0.2,0.1-0.3l0-0.2l0.1-0.3l0.2-0.5c0-0.1,0-0.1,0.1-0.2c0.2-0.8-0.3-1.6-1.1-1.8
			c-0.8-0.2-1.6,0.3-1.8,1.1l0,0L3.8,35l-0.1,0.3l-0.1,0.4c0,0.3-0.1,0.5-0.1,0.8c0,0.3,0,0.5,0.1,0.8c0.1,0.3,0.1,0.6,0.4,0.9
			c0.1,0.1,0.2,0.3,0.3,0.4c0.1,0.1,0.3,0.2,0.4,0.3c0.3,0.2,0.5,0.3,0.8,0.5c0.3,0.1,0.5,0.1,0.8,0.2c1,0.1,1.8,0,2.6-0.2
			c0.6-0.1,1.2-0.3,1.7-0.5l0.2,0.2c0.2,0.2,0.5,0.4,0.7,0.6c0.5,0.4,1,0.8,1.6,1.1c0.3,0.2,0.6,0.3,0.9,0.4
			c0.3,0.1,0.6,0.2,0.9,0.3c0.6,0.1,1.3,0.2,1.9,0.2c0.6,0,1.2-0.1,1.8-0.2c0.6-0.1,1.2-0.3,1.7-0.5c1.1-0.4,2.2-0.8,3.3-1.1
			c-1.1,0.2-2.3,0.5-3.4,0.7C19.7,40.5,19.1,40.6,18.6,40.6z"/>
	</g>
</g>
</svg>
