<?xml version="1.0" encoding="utf-8"?>
<!-- Generator: Adobe Illustrator 19.0.0, SVG Export Plug-In . SVG Version: 6.00 Build 0)  -->
<svg version="1.1" id="Capa_1" xmlns="http://www.w3.org/2000/svg" xmlns:xlink="http://www.w3.org/1999/xlink" x="0px" y="0px"
	 viewBox="-19 111.7 571.3 571.3" style="enable-background:new -19 111.7 571.3 571.3;" xml:space="preserve">
<style type="text/css">
	.st0{fill:#FFFFFF;}
</style>
<g>
	<g>
		<path class="st0" d="M541.9,246.3c-10.1-1.6-18.2-6.7-26.8-11.2c-5.3-2.8-11.1-4.7-16.6-7.1c-1.5-0.6-2.8-1.7-4.1-2.7
			c-1.8-1.4-3.4-3.1-5.3-4.4c-8.2-5.4-13.5-4.3-18.6,4.1c-6.5,10.9-16.2,18.4-26.2,25.6c-14.2,10.2-30.7,13.9-47.7,12.9
			c-16.7-1-33.4-3.8-49.9-6.4c-37.8-5.9-75.3-14.3-113.7-14.8c-26.4-0.3-52,3.9-76.2,15.5c-20.5,9.9-35.1,26.4-50.9,41.7
			c-7.8,7.6-14.7,16-22.8,23.2c-5.5,4.9-12,8.8-18.4,12.6c-33.1,19.5-53.2,49.2-68.2,83.7c-20.5,47-18.8,94.6-6.3,142.8
			c0.9,3.4,1.7,6.9,3,10.2c0.8,1.9,2.8,5,3.8,4.9c2.3-0.4,5.5-1.9,6.3-3.9c3-7.3,6.2-14.7,7.5-22.4c3.4-20.4,5.7-40.9,8.7-61.4
			c2.4-16.3,8.3-31.3,16.6-45.4c1.2-2.1,2.5-4.5,2.8-6.9c2.6-20.4,15-34.8,29.1-48.1c5.6-5.3,12.3-9.3,18.3-14.1
			c5.2-4.3,9.9-3.5,14.4,0.8c4.6,4.3,9.4,8.3,13.5,13c5.2,5.8,11.2,8.8,19,9.5c24.7,2.4,49.3,0.4,73.9-1.4c2.7-0.2,7.3-3.3,7.2-5
			c-0.1-4.6-1.7-10.1-7.4-10.9c-7.9-1.1-15.9-1.7-23.9-1.6c-3.7,0-5.2-0.8-6.2-4.2c-1.1-3.8-2.7-7.4-4.4-11.8
			c24.7-8.6,49.3-9.4,74.4-5.6c16.4,2.5,33.1,3.7,49.5,6.3c8.8,1.4,17.2,5.2,26,6.2c9.3,1,19.1,1.2,28.3-0.4
			c15.1-2.7,29.9-7.1,44.9-10.7c4.8-1.2,7.8,1.6,8.9,5.8c3.2,11.6,9.2,21.6,18.1,29.4c6.3,5.5,13.5,10.4,21,14
			c6.7,3.2,15.7-0.8,19.6-7.2c0.8-1.2,0.8-4,0-4.9c-3.2-3.6-6.6-7.3-10.5-10.1c-4.8-3.5-12.4-4.9-14.9-9.4
			c-4.6-8.3-7.9-17.6-8.5-27.7c-0.5-8.8,3.2-13.7,10.1-18.1c16.9-10.9,33.6-22.2,50.4-33.2c8.7-5.7,18.4-8.1,28.6-9.7
			c13.1-2,23.6-9.3,31.7-19.5C555.5,261.5,550.4,247.6,541.9,246.3z"/>
	</g>
</g>
</svg>
