<?xml version="1.0" encoding="utf-8"?>
<!-- Generator: Adobe Illustrator 22.0.1, SVG Export Plug-In . SVG Version: 6.00 Build 0)  -->
<svg version="1.1" id="Capa_1" xmlns="http://www.w3.org/2000/svg" xmlns:xlink="http://www.w3.org/1999/xlink" x="0px" y="0px" width="64" height="64"
	 viewBox="0 0 64 64" style="enable-background:new 0 0 64 64;" xml:space="preserve">
<style type="text/css">
	.st0{fill:#FFFFFF;}
</style>
<g id="XMLID_312_">
	<path id="XMLID_317_" class="st0" d="M43.3,33.4c-2.9-4.5-7.9-7.3-13.3-7.3c-5.4,0-10.4,2.7-13.3,7.3l-8,12.5
		c-2.2,3.4-1.9,7.9,0.7,10.9c2.6,3.1,7,4.1,10.7,2.4l0,0c6.3-2.8,13.4-2.8,19.6,0c3.7,1.6,8,0.6,10.7-2.4c2.6-3.1,2.9-7.5,0.8-10.9
		L43.3,33.4z"/>
	<path id="XMLID_316_" class="st0" d="M10.3,32.2c3.7-1.4,5.3-6,3.6-10.4c-1.7-4.3-6-6.7-9.6-5.2C0.6,18-1,22.6,0.6,26.9
		C2.3,31.2,6.6,33.6,10.3,32.2z"/>
	<path id="XMLID_315_" class="st0" d="M24.7,24.4c4.8,0,8.7-4.6,8.7-10.2C33.4,8.6,29.5,4,24.7,4C19.9,4,16,8.6,16,14.2
		C16,19.8,19.9,24.4,24.7,24.4z"/>
	<path id="XMLID_314_" class="st0" d="M40.8,27.4c4.5,1.5,9.7-1.6,11.4-6.9c1.8-5.3-0.5-10.9-5-12.4c-4.5-1.5-9.7,1.6-11.4,6.9
		C34.1,20.3,36.3,25.9,40.8,27.4z"/>
	<path id="XMLID_313_" class="st0" d="M61.4,25.9c-3.2-2.3-7.9-1.2-10.7,2.5c-2.7,3.7-2.4,8.6,0.7,10.9c3.2,2.3,7.9,1.2,10.7-2.5
		C64.9,33.1,64.5,28.2,61.4,25.9z"/>
</g>
</svg>
