<?xml version="1.0" encoding="utf-8"?>
<!-- Generator: Adobe Illustrator 19.0.0, SVG Export Plug-In . SVG Version: 6.00 Build 0)  -->
<svg version="1.1" id="Layer_1" xmlns="http://www.w3.org/2000/svg" xmlns:xlink="http://www.w3.org/1999/xlink" x="0px" y="0px"
	 viewBox="-49 141 512 512" style="enable-background:new -49 141 512 512;" xml:space="preserve">
<g>
	<g>
		<path d="M462.7,289.1c-4.3-60.9-57.3-106.9-118.1-102.6c-45.2,3.2-83,33.4-97.1,74.9h-81c-14.1-41.6-51.9-71.7-97.1-74.9
			C8.5,182.3-44.4,228.3-48.7,289.1c-2.1,29.5,7.5,58,26.8,80.3C-3.4,390.8,22,404,49.9,406.9l-5.6,58.6l-30.4-2.1
			C2.8,462.5-6.8,470.9-7.5,482c-0.8,11.1,7.6,20.7,18.7,21.5l29.9,2.1c0.1,14,2.7,27.2,7.8,39.2l-27.9,10.6
			c-10.4,3.9-15.6,15.6-11.7,25.9c3.1,8,10.7,13,18.8,13c2.4,0,4.8-0.4,7.1-1.3l37.7-14.3c14,12.7,32.1,22,53.5,26.7
			c28.5,6.2,56.4,0.5,76.5-15.7c1.5-1.2,2.9-2.4,4.2-3.7c1.3,1.3,2.8,2.5,4.2,3.7c14.8,11.9,33.7,18.1,54.1,18.1
			c7.3,0,14.9-0.8,22.4-2.5c21.5-4.7,39.6-14,53.5-26.7l37.7,14.3c2.4,0.9,4.8,1.3,7.1,1.3c8.1,0,15.8-4.9,18.8-13
			c3.9-10.4-1.3-22-11.7-25.9l-28-10.6c5-12,7.7-25.1,7.8-39.1l29.9-2.1c11.1-0.8,19.4-10.4,18.7-21.5
			c-0.8-11.1-10.4-19.4-21.5-18.7l-30.4,2.1l-5.6-58.6c27.9-3,53.3-16.1,71.8-37.4C455.3,347.2,464.8,318.6,462.7,289.1z
			 M157.4,434.4c-11.1,0-20.1-9-20.1-20.1v-10.7c0-11.1,9-20.1,20.1-20.1s20.1,9,20.1,20.1v10.7
			C177.5,425.4,168.5,434.4,157.4,434.4z M216.4,547h-18.8c-11.1,0-20.1-9-20.1-20.1c0-11.1,9-20.1,20.1-20.1h18.8
			c11.1,0,20.1,9,20.1,20.1C236.5,538,227.5,547,216.4,547z M276.7,414.3c0,11.1-9,20.1-20.1,20.1s-20.1-9-20.1-20.1v-10.7
			c0-11.1,9-20.1,20.1-20.1s20.1,9,20.1,20.1V414.3z"/>
	</g>
</g>
</svg>
