<?xml version="1.0" encoding="utf-8"?>
<!-- Generator: Adobe Illustrator 22.0.1, SVG Export Plug-In . SVG Version: 6.00 Build 0)  -->
<svg version="1.1" id="Capa_1" xmlns="http://www.w3.org/2000/svg" xmlns:xlink="http://www.w3.org/1999/xlink" x="0px" y="0px" width="64" height="64"
	 viewBox="0 0 94 94" style="enable-background:new 0 0 94 94;" xml:space="preserve">
<style type="text/css">
	.st0{fill:#FFFFFF;}
</style>
<g>
	<path class="st0" d="M86.8,71V59.5c0-6.9-4.6-17.3-17.3-17.3h-10c-7.1,0-7.7-3.5-7.8-5.3V23C56,21.2,59,16.9,59,12
		c0-6.6-5.4-12-12-12S35,5.4,35,12c0,4.9,3,9.2,7.3,11v14c0,1.3-0.4,5.3-7.8,5.3h-10c-12.7,0-17.3,10.3-17.3,17.3V71
		C3,72.8,0,77.1,0,82c0,6.6,5.4,12,12,12s12-5.4,12-12c0-4.9-3-9.2-7.3-11V59.5c0-1.3,0.4-7.8,7.8-7.8h10c3,0,5.6-0.5,7.8-1.2V71
		C38,72.8,35,77.1,35,82c0,6.6,5.4,12,12,12s12-5.4,12-12c0-4.9-3-9.2-7.3-11V50.5c2.2,0.8,4.7,1.2,7.8,1.2h10c7.1,0,7.7,6,7.8,7.8
		V71C73,72.8,70,77.1,70,82c0,6.6,5.4,12,12,12s12-5.4,12-12C94,77.1,91,72.8,86.8,71z M18.9,82c0,3.8-3.1,6.9-6.9,6.9
		c-3.8,0-6.9-3.1-6.9-6.9s3.1-6.9,6.9-6.9C15.8,75.1,18.9,78.2,18.9,82z M40.1,12c0-3.8,3.1-6.9,6.9-6.9c3.8,0,6.9,3.1,6.9,6.9
		s-3.1,6.9-6.9,6.9C43.2,18.9,40.1,15.8,40.1,12z M53.9,82c0,3.8-3.1,6.9-6.9,6.9c-3.8,0-6.9-3.1-6.9-6.9s3.1-6.9,6.9-6.9
		C50.8,75.1,53.9,78.2,53.9,82z M82,88.9c-3.8,0-6.9-3.1-6.9-6.9s3.1-6.9,6.9-6.9c3.8,0,6.9,3.1,6.9,6.9S85.8,88.9,82,88.9z"/>
</g>
</svg>
