<?xml version="1.0" encoding="utf-8"?>
<!-- Generator: Adobe Illustrator 22.0.1, SVG Export Plug-In . SVG Version: 6.00 Build 0)  -->
<svg version="1.1" id="Layer_1" xmlns="http://www.w3.org/2000/svg" xmlns:xlink="http://www.w3.org/1999/xlink" x="0px" y="0px" width="64" height="64"
	 viewBox="0 0 16 16" style="enable-background:new 0 0 16 16;" xml:space="preserve">
<style type="text/css">
	.st0{fill:#444444;}
</style>
<path d="M14,11.3c-1-1.9-2-1.6-3.1-1.7c0.1,0.3,0.1,0.6,0.1,1c1.6,0.4,2,2.3,2,3.4v1h-2v-1h1c0,0,0-2.5-1.5-2.5S9,13.9,9,14h1v1H8
	v-1c0-1.1,0.4-3.1,2-3.4c0-0.6-0.1-1.1-0.2-1.3C9.6,9.2,9.4,9,9.4,8.7c0-0.6,0.8-0.4,1.4-1.5c0,0,0.9-2.3,0.6-4.3h-1
	c0-0.2,0.1-0.3,0.1-0.5s0-0.3-0.1-0.5h0.8C10.9,0.9,9.9,0,8,0l0,0l0,0l0,0C6.1,0,5.1,0.9,4.7,2h0.8c0,0.2-0.1,0.3-0.1,0.5
	s0,0.3,0.1,0.5h-1C4.3,5,5.1,7.3,5.1,7.3c0.6,1,1.4,0.8,1.4,1.5c0,0.5-0.5,0.7-1.1,0.8C5.2,9.8,5,10.2,5,11c0,0.4,0,0.8,0,1.2
	c0.6,0.2,1,0.8,1,1.4C6,14.3,5.3,15,4.5,15S3,14.3,3,13.5c0-0.7,0.4-1.2,1-1.4c0-0.3,0-0.7,0-1.2S4.1,10,4.2,9.6
	C3.5,9.7,2.7,10,2,11.3C1.4,12.4,1.1,16,1.1,16h13.7C14.9,16,14.6,12.4,14,11.3z M6.5,2.5C6.5,1.7,7.2,1,8,1s1.5,0.7,1.5,1.5
	S8.8,4,8,4S6.5,3.3,6.5,2.5z"/>
<path class="st0" d="M5,13.5C5,13.8,4.8,14,4.5,14S4,13.8,4,13.5S4.2,13,4.5,13S5,13.2,5,13.5z"/>
</svg>
