<?xml version="1.0" encoding="utf-8"?>
<!-- Generator: Adobe Illustrator 22.0.1, SVG Export Plug-In . SVG Version: 6.00 Build 0)  -->
<svg version="1.1" id="Layer_1" xmlns="http://www.w3.org/2000/svg" xmlns:xlink="http://www.w3.org/1999/xlink" x="0px" y="0px" width="64" height="64"
	 viewBox="0 0 512 512" style="enable-background:new 0 0 512 512;" xml:space="preserve">
<style type="text/css">
	.st0{fill:#FFFFFF;}
</style>
<g>
	<g>
		<path class="st0" d="M512,494.9l-8.7-100.5c-3-34.4-27.1-63.2-60-71.8l-100-26.1c-2.6-0.7-5.4,0-7.4,1.9l-2.5,2.4L308,289.3
			l-2.4-14.5c9.6-6.1,18.5-14.3,25.9-23.7c27.5-5.5,47.9-30,47.9-58.4V91.1c0-45.5-37-82.5-82.5-82.5h-81.6
			c-27.4,0-53,13.6-68.4,36.3c-2.4,3.6-1.5,8.5,2.1,10.9c3.6,2.4,8.5,1.5,10.9-2.1c12.5-18.4,33.2-29.4,55.4-29.4h81.6
			c36.9,0,66.9,30,66.9,66.9v41c-3-1.8-6.5-2.8-10.2-2.8h-0.3v-4.1c0-2.4-1.1-4.8-3.1-6.2c-2-1.5-4.5-2-6.8-1.3
			c-6.3,1.8-12.8,3.2-19.4,4.4c-12.3,2.2-25,3.3-37.8,3.3c-28.5,0-56.2-5.5-80.2-15.6c-2.2-0.9-4.4-1.9-6.6-3
			c-0.1-0.1-0.3-0.1-0.4-0.2c-9.9-4.7-19.1-10.3-27.3-16.6c-2.4-1.8-5.6-2.1-8.2-0.8c-2.7,1.3-4.4,4-4.4,7v33.2h-0.3
			c-3.7,0-7.2,1-10.2,2.8v-41c0-4.8,0.5-9.6,1.5-14.3c0.9-4.2-1.8-8.4-6-9.3c-4.2-0.9-8.4,1.8-9.3,6c-1.3,5.8-1.9,11.7-1.9,17.6
			v101.6c0,28.3,20.3,52.8,47.7,58.4c7.4,9.4,16.3,17.7,26,23.9l-2.3,14.4l-25.5,11.6l-2.4-2.4c-2-1.9-4.8-2.6-7.4-1.9l-100,26.1
			c-32.9,8.6-57,37.4-60,71.8L0,494.9c-0.2,2.2,0.5,4.4,2,6c1.5,1.6,3.6,2.5,5.8,2.5h88c0,0,0,0,0,0c0,0,0,0,0,0h320.3c0,0,0,0,0,0
			c0,0,0,0,0,0h88c2.2,0,4.3-0.9,5.8-2.5C511.4,499.3,512.2,497.1,512,494.9z M353.2,144.9h0.3c2.6,0,4.7,2.1,4.7,4.7v18.7
			c0,2.6-2.1,4.7-4.7,4.7h-0.3V144.9z M347.9,222.3c0.1-0.3,0.2-0.5,0.3-0.8c0.3-0.7,0.5-1.5,0.8-2.2c0.2-0.7,0.5-1.4,0.7-2.1
			c0.1-0.4,0.2-0.7,0.3-1.1c0.3-1,0.6-1.9,0.8-2.9c0.1-0.2,0.1-0.4,0.2-0.6c0.5-2.2,1-4.4,1.3-6.6c0-0.1,0-0.3,0.1-0.4
			c0.2-1.1,0.3-2.1,0.4-3.2c0-0.2,0-0.3,0.1-0.5c0.1-1.1,0.2-2.1,0.3-3.2c0-0.1,0-0.3,0-0.4c0.1-1.1,0.1-2.2,0.1-3.3v-6.4h0.3
			c3.7,0,7.2-1,10.2-2.8v6.8l0,0c0,14.4-7.1,27.5-18.2,35.6C346.3,226.3,347.1,224.3,347.9,222.3z M153.9,149.6
			c0-2.6,2.1-4.7,4.7-4.7h0.3v28h-0.3c-2.6,0-4.7-2.1-4.7-4.7V149.6z M148.3,192.7v-6.8c3,1.8,6.5,2.8,10.2,2.8h0.3v6.6
			c0,1.1,0,2.2,0.1,3.3c0,0.1,0,0.3,0,0.4c0.1,1.1,0.1,2.1,0.3,3.2c0,0.2,0,0.3,0.1,0.5c0.1,1.1,0.3,2.1,0.4,3.2
			c0,0.1,0,0.2,0.1,0.3c0.4,2.2,0.8,4.5,1.4,6.7c0,0.1,0.1,0.3,0.1,0.4c0.3,1,0.5,2,0.8,3.1c0.1,0.3,0.2,0.5,0.2,0.8
			c0.3,0.9,0.6,1.8,0.9,2.8c0.1,0.4,0.3,0.9,0.5,1.3c0.2,0.5,0.3,0.9,0.5,1.4c0.7,1.9,1.4,3.7,2.3,5.5
			C155.4,220.1,148.3,207,148.3,192.7z M177.4,212.9c0-0.1-0.1-0.3-0.1-0.4c-0.2-0.8-0.4-1.5-0.7-2.3c-0.1-0.3-0.2-0.6-0.2-0.8
			c-0.2-0.6-0.3-1.2-0.4-1.8c-0.1-0.4-0.2-0.8-0.3-1.1c-0.1-0.5-0.2-1.1-0.3-1.6c-0.1-0.4-0.2-0.9-0.2-1.3c-0.1-0.5-0.1-1-0.2-1.5
			c-0.1-0.4-0.1-0.9-0.2-1.3c-0.1-0.6-0.1-1.1-0.1-1.7c0-0.4-0.1-0.7-0.1-1.1c-0.1-0.9-0.1-1.8-0.1-2.7v-14.5v-43.7V111
			c30.7,19.1,70.4,29.9,111.5,29.9c13.5,0,26.8-1.1,39.8-3.4c3.9-0.7,7.8-1.4,11.7-2.3v1.9v43.7v14.3c0,0.9,0,1.8-0.1,2.7
			c0,0.4-0.1,0.7-0.1,1.1c0,0.5-0.1,1.1-0.1,1.6c0,0.4-0.1,0.9-0.2,1.3c-0.1,0.5-0.1,1-0.2,1.5c-0.1,0.4-0.2,0.9-0.2,1.4
			c-0.1,0.5-0.2,1-0.3,1.5c-0.1,0.4-0.2,0.8-0.3,1.2c-0.1,0.6-0.3,1.2-0.4,1.7c-0.1,0.3-0.2,0.6-0.3,1c-0.2,0.7-0.4,1.4-0.6,2.1
			c-0.1,0.2-0.1,0.4-0.2,0.5c-6.5,20.5-23,40.9-41.6,51.2c-0.2,0.1-0.4,0.2-0.6,0.3c-0.6,0.3-1.2,0.6-1.8,0.9
			c-0.3,0.1-0.5,0.3-0.8,0.4c-0.7,0.3-1.4,0.7-2.1,1c-0.3,0.1-0.6,0.2-0.9,0.4c-0.6,0.2-1.1,0.5-1.7,0.7c-0.2,0.1-0.4,0.2-0.7,0.3
			c-0.8,0.3-1.5,0.5-2.3,0.8c-0.2,0.1-0.4,0.1-0.6,0.2c-0.8,0.2-1.6,0.5-2.4,0.7l-1,0.2c-9.5,2.4-16.3,3.7-22.5,3.7
			c-4,0-8-0.5-12.9-1.5c-0.5-0.1-1-0.2-1.5-0.3c-2.5-0.5-5.3-1.2-8.4-2c-0.8-0.2-1.6-0.4-2.4-0.7c-0.2-0.1-0.4-0.1-0.6-0.2
			c-0.8-0.2-1.5-0.5-2.3-0.8c-0.2-0.1-0.4-0.2-0.6-0.2c-0.6-0.2-1.2-0.5-1.8-0.7c-0.2-0.1-0.5-0.2-0.7-0.3c-0.7-0.3-1.5-0.7-2.2-1
			c-0.2-0.1-0.4-0.2-0.6-0.3c-0.7-0.4-1.5-0.7-2.2-1.1c-0.1,0-0.1-0.1-0.2-0.1C200.4,253.9,183.9,233.4,177.4,212.9z M214.3,301.8
			c2.4-1.1,4.1-3.3,4.5-5.9l2.2-13.5c0.1,0,0.2,0.1,0.4,0.1c0.4,0.2,0.8,0.3,1.2,0.4c0.9,0.3,1.7,0.6,2.6,0.9
			c0.2,0.1,0.4,0.1,0.6,0.2c1,0.3,2,0.6,3,0.8c10.8,2.7,18.7,4.3,26.6,4.3c7.9,0,15.6-1.5,26.3-4.2l1-0.2c1-0.2,2-0.5,3-0.8
			c0.2-0.1,0.5-0.1,0.7-0.2c0.9-0.3,1.7-0.6,2.6-0.9c0.4-0.2,0.9-0.3,1.3-0.5c0.1-0.1,0.3-0.1,0.4-0.2l2.2,13.7
			c0.4,2.6,2.1,4.8,4.5,5.9l23.6,10.7L256,375.1l-65.2-62.6L214.3,301.8z M141.8,376.1c6,0,10.9,5,10.9,11.2s-4.9,11.2-10.9,11.2
			s-10.9-5-10.9-11.2S135.8,376.1,141.8,376.1z M423.3,487.7l-6.1-68.9c-0.4-4.3-4.2-7.5-8.5-7.1c-4.3,0.4-7.5,4.2-7.1,8.5l6,67.5
			H104.4l2.4-27.3c0.4-4.3-2.8-8.1-7.1-8.5c-4.3-0.4-8.1,2.8-8.5,7.1l-2.5,28.7H16.4l8-91.9c2.4-27.8,21.8-51.1,48.3-58l61.3-16
			v39.8c-10.8,3.4-18.7,13.6-18.7,25.7c0,14.8,11.9,26.9,26.5,26.9c14.6,0,26.5-12.1,26.5-26.9c0-12.1-7.9-22.3-18.7-25.7v-43.9
			l18.8-4.9l79.7,76.5V440c0,4.3,3.5,7.8,7.8,7.8s7.8-3.5,7.8-7.8v-50.7l79.7-76.5l10.1,2.6v47c-15.6,0.7-28,13.7-28,29.6v68.1
			c0,2.8,1.5,5.4,4,6.8l14.7,8.2c1.2,0.7,2.5,1,3.8,1c2.7,0,5.4-1.4,6.8-4c2.1-3.8,0.8-8.6-3-10.7l-10.7-6v-63.5
			c0-7.7,6.1-14,13.6-14h13.2c7.5,0,13.6,6.3,13.6,14v63.5l-10.7,6c-3.8,2.1-5.1,6.9-3,10.7c2.1,3.8,6.9,5.1,10.7,3l14.7-8.2
			c2.5-1.4,4-4,4-6.8v-68.1c0-15.9-12.5-29-28-29.6v-42.9l69.9,18.2c26.5,6.9,45.9,30.2,48.3,58l8,91.9L423.3,487.7L423.3,487.7z"/>
	</g>
</g>
<g>
	<g>
		<path class="st0" d="M103.3,411.8c-4.3-0.4-8.1,2.8-8.5,7.1l-1.3,14.5c-0.4,4.3,2.8,8.1,7.1,8.5c0.2,0,0.5,0,0.7,0
			c4,0,7.4-3.1,7.8-7.1l1.3-14.5C110.8,416,107.6,412.2,103.3,411.8z"/>
	</g>
</g>
<g>
	<g>
		<path class="st0" d="M205.4,148c-4.3,0-7.8,3.5-7.8,7.8v6.3c0,4.3,3.5,7.8,7.8,7.8s7.8-3.5,7.8-7.8v-6.3
			C213.2,151.5,209.7,148,205.4,148z"/>
	</g>
</g>
<g>
	<g>
		<path class="st0" d="M306.6,148c-4.3,0-7.8,3.5-7.8,7.8v6.3c0,4.3,3.5,7.8,7.8,7.8s7.8-3.5,7.8-7.8v-6.3
			C314.4,151.5,310.9,148,306.6,148z"/>
	</g>
</g>
</svg>
