<?xml version="1.0" encoding="utf-8"?>
<!-- Generator: Adobe Illustrator 19.0.0, SVG Export Plug-In . SVG Version: 6.00 Build 0)  -->
<svg version="1.1" id="Capa_1" xmlns="http://www.w3.org/2000/svg" xmlns:xlink="http://www.w3.org/1999/xlink" x="0px" y="0px" width="26" height="26"
	 viewBox="-282 374.3 45.7 45.7" style="enable-background:new -282 374.3 45.7 45.7;" xml:space="preserve">
<style type="text/css">
	.st0{fill:#FFFFFF;}
</style>
<g>
	<g>
		<g>
			<g>
				<g>
					<path class="st0" d="M-269.8,388c0-3.3,0.9-6.4,2.4-9.1c0.4-0.6-0.2-1.5-0.9-1.3c-8.4,2.2-14.4,10.1-13.7,19.3
						c0.7,8.7,7.8,15.8,16.5,16.6c6,0.6,11.5-1.8,15.2-5.8c0.5-0.5,0.1-1.4-0.7-1.4c-0.2,0-0.4,0-0.6,0
						C-261.6,406.3-269.8,398.1-269.8,388z"/>
				</g>
			</g>
			<g>
				<path class="st0" d="M-258.9,378.4l0.9,2.6l2.8,0.1c0.4,0,0.5,0.5,0.2,0.7l-2.2,1.7l0.8,2.7c0.1,0.3-0.3,0.6-0.6,0.4l-2.3-1.6
					l-2.3,1.6c-0.3,0.2-0.7-0.1-0.6-0.4l0.8-2.7l-2.2-1.7c-0.3-0.2-0.1-0.7,0.2-0.7l2.8-0.1l0.9-2.6C-259.4,378-259,378-258.9,378.4
					z"/>
			</g>
			<g>
				<path class="st0" d="M-241.7,399.2l0.9,2.5l2.7,0.1c0.4,0,0.5,0.5,0.2,0.7l-2.1,1.6l0.8,2.6c0.1,0.4-0.3,0.7-0.6,0.5l-2.2-1.5
					l-2.2,1.5c-0.3,0.2-0.7-0.1-0.6-0.5l0.8-2.6l-2.1-1.6c-0.3-0.2-0.1-0.7,0.2-0.7l2.7-0.1l0.9-2.5
					C-242.4,398.8-241.9,398.8-241.7,399.2z"/>
			</g>
			<g>
				<path class="st0" d="M-242.1,380.9l1.3,3.8l4,0.1c0.5,0,0.6,0.6,0.3,0.9l-3.2,2.4l1.2,3.9c0.1,0.4-0.4,0.8-0.7,0.5l-3.3-2.3
					l-3.3,2.3c-0.4,0.3-0.9-0.1-0.7-0.5l1.2-3.9l-3.2-2.4c-0.4-0.3-0.2-0.8,0.3-0.9l4-0.1l1.3-3.8
					C-242.8,380.4-242.2,380.4-242.1,380.9z"/>
			</g>
		</g>
	</g>
</g>
</svg>
