<?xml version="1.0" encoding="utf-8"?>
<!-- Generator: Adobe Illustrator 19.0.0, SVG Export Plug-In . SVG Version: 6.00 Build 0)  -->
<svg version="1.1" id="Capa_1" xmlns="http://www.w3.org/2000/svg" xmlns:xlink="http://www.w3.org/1999/xlink" x="0px" y="0px" width="26" height="26"
	 viewBox="-282 374.8 45.2 45.2" style="enable-background:new -282 374.8 45.2 45.2;" xml:space="preserve">
<style type="text/css">
	.st0{fill:#FFFFFF;}
</style>
<g>
	<g>
		<path class="st0" d="M-259.4,386.1c-6.2,0-11.3,5.1-11.3,11.3s5.1,11.3,11.3,11.3c6.2,0,11.3-5.1,11.3-11.3
			S-253.2,386.1-259.4,386.1z"/>
		<g>
			<g>
				<path class="st0" d="M-259.4,382.8c-1.2,0-2.2-1-2.2-2.2V377c0-1.2,1-2.2,2.2-2.2c1.2,0,2.2,1,2.2,2.2v3.5
					C-257.2,381.8-258.2,382.8-259.4,382.8z"/>
			</g>
			<g>
				<path class="st0" d="M-259.4,412.1c-1.2,0-2.2,1-2.2,2.2v3.5c0,1.2,1,2.2,2.2,2.2c1.2,0,2.2-1,2.2-2.2v-3.5
					C-257.2,413-258.2,412.1-259.4,412.1z"/>
			</g>
			<g>
				<path class="st0" d="M-249.1,387.1c-0.9-0.9-0.9-2.3,0-3.1l2.5-2.5c0.9-0.9,2.3-0.9,3.1,0c0.9,0.9,0.9,2.3,0,3.1l-2.5,2.5
					C-246.8,387.9-248.2,387.9-249.1,387.1z"/>
			</g>
			<g>
				<path class="st0" d="M-269.8,407.8c-0.9-0.9-2.3-0.9-3.1,0l-2.5,2.5c-0.9,0.9-0.9,2.3,0,3.1s2.3,0.9,3.1,0l2.5-2.5
					C-268.9,410-268.9,408.6-269.8,407.8z"/>
			</g>
			<g>
				<path class="st0" d="M-244.8,397.4c0-1.2,1-2.2,2.2-2.2h3.5c1.2,0,2.2,1,2.2,2.2c0,1.2-1,2.2-2.2,2.2h-3.5
					C-243.8,399.6-244.8,398.6-244.8,397.4z"/>
			</g>
			<g>
				<path class="st0" d="M-274.1,397.4c0-1.2-1-2.2-2.2-2.2h-3.5c-1.2,0-2.2,1-2.2,2.2c0,1.2,1,2.2,2.2,2.2h3.5
					C-275,399.6-274.1,398.6-274.1,397.4z"/>
			</g>
			<g>
				<path class="st0" d="M-249.1,407.8c0.9-0.9,2.3-0.9,3.1,0l2.5,2.5c0.9,0.9,0.9,2.3,0,3.1s-2.3,0.9-3.1,0l-2.5-2.5
					C-249.9,410-249.9,408.6-249.1,407.8z"/>
			</g>
			<g>
				<path class="st0" d="M-269.8,387.1c0.9-0.9,0.9-2.3,0-3.1l-2.5-2.5c-0.9-0.9-2.3-0.9-3.1,0c-0.9,0.9-0.9,2.3,0,3.1l2.5,2.5
					C-272,387.9-270.6,387.9-269.8,387.1z"/>
			</g>
		</g>
	</g>
</g>
</svg>
